<svg id="b3a3f43d-29d7-4976-9290-14b03d978d9d" data-name="Layer 2 copy" xmlns="http://www.w3.org/2000/svg" viewBox="0 0 1070.01 554.76"><defs><style>.b770ba29-c761-418c-9c57-9fa5bc41e606{fill:#231f20;}</style></defs><path class="b770ba29-c761-418c-9c57-9fa5bc41e606" d="M1054.43,573.76H24.57A17.55,17.55,0,0,1,9.44,547.33L86.54,416a17.54,17.54,0,0,1,15.13-8.66H977.33A17.54,17.54,0,0,1,992.46,416l77.1,131.38A17.55,17.55,0,0,1,1054.43,573.76Z" transform="translate(-4.49 -21.5)"/><path class="b770ba29-c761-418c-9c57-9fa5bc41e606" d="M1054.43,576.26H24.57A20,20,0,0,1,7.28,546.07l77.1-131.38a20.12,20.12,0,0,1,17.29-9.9H977.33a20.12,20.12,0,0,1,17.29,9.9l77.1,131.38a20,20,0,0,1-17.29,30.19ZM101.67,409.79a15.1,15.1,0,0,0-13,7.43L11.6,548.6a15,15,0,0,0,13,22.66H1054.43a15,15,0,0,0,13-22.66L990.31,417.22a15.1,15.1,0,0,0-13-7.43Z" transform="translate(-4.49 -21.5)"/><path class="b770ba29-c761-418c-9c57-9fa5bc41e606" d="M816.66,163.38H262.34a15.79,15.79,0,0,1-13.62-23.78L312,31.8A15.78,15.78,0,0,1,325.6,24H753.4A15.78,15.78,0,0,1,767,31.8l63.27,107.8A15.79,15.79,0,0,1,816.66,163.38Z" transform="translate(-4.49 -21.5)"/><path class="b770ba29-c761-418c-9c57-9fa5bc41e606" d="M816.66,165.88H262.34a18.29,18.29,0,0,1-15.77-27.55l63.26-107.8a18.35,18.35,0,0,1,15.77-9H753.4a18.35,18.35,0,0,1,15.77,9l63.26,107.8a18.29,18.29,0,0,1-15.77,27.55ZM325.6,26.5a13.36,13.36,0,0,0-11.46,6.56l-63.26,107.8a13.29,13.29,0,0,0,11.46,20H816.66a13.29,13.29,0,0,0,11.46-20L764.86,33.06A13.36,13.36,0,0,0,753.4,26.5Z" transform="translate(-4.49 -21.5)"/><path class="b770ba29-c761-418c-9c57-9fa5bc41e606" d="M162.31,357.22l-21.48-12.79,67.75-113.72a20.29,20.29,0,0,1,29.93-5.58L366.25,325.19l.4-95.4,25,.1-.45,106.27a19.66,19.66,0,0,1-31.79,15.43L227.31,248.11ZM366.2,336.07v0Z" transform="translate(-4.49 -21.5)"/><rect class="b770ba29-c761-418c-9c57-9fa5bc41e606" x="427.98" y="205.76" width="25" height="123.89"/><path class="b770ba29-c761-418c-9c57-9fa5bc41e606" d="M654.14,359.9l-59.08-60.22-66.27,51.91A19.66,19.66,0,0,1,497,336.11l-.45-106.22,25-.1.4,95.4,55.49-43.47-.22-.22,79.46-61.85,15.39,19.71-57.21,44.81L672,342.39ZM522,336v0Z" transform="translate(-4.49 -21.5)"/><path class="b770ba29-c761-418c-9c57-9fa5bc41e606" d="M865.12,363.65H717.32a19.93,19.93,0,0,1-17.2-30l58-99.1a19.76,19.76,0,0,1,17.2-9.86h.09a19.74,19.74,0,0,1,17.19,10l.06.11Zm-139-25h96.21L775.2,254.81Z" transform="translate(-4.49 -21.5)"/><rect class="b770ba29-c761-418c-9c57-9fa5bc41e606" x="874.47" y="220.22" width="25" height="140.55" transform="translate(-29.78 466.2) rotate(-30.33)"/></svg>