<svg xmlns="http://www.w3.org/2000/svg" viewBox="0 0 1070.01 554.76"><defs><style>.b02fff0c-0acb-4302-8868-833201ab6e69{fill:#fff;}</style></defs><g id="a75da71e-cf8f-42f9-a6c0-b12d581108ca" data-name="Layer 2"><g id="eee535a9-c765-4fba-8f47-1dfdee45ae12" data-name="Layer 2 copy"><path class="b02fff0c-0acb-4302-8868-833201ab6e69" d="M1049.93,552.26H20.08A17.55,17.55,0,0,1,5,525.83l77.1-131.38a17.52,17.52,0,0,1,15.13-8.66H972.83A17.54,17.54,0,0,1,988,394.45l77.1,131.38A17.55,17.55,0,0,1,1049.93,552.26Z"/><path class="b02fff0c-0acb-4302-8868-833201ab6e69" d="M1049.93,554.76H20.08A20,20,0,0,1,2.79,524.57l77.1-131.38a20.11,20.11,0,0,1,17.29-9.9H972.83a20.13,20.13,0,0,1,17.3,9.9l77.09,131.38a20,20,0,0,1-17.29,30.19ZM97.18,388.29a15.09,15.09,0,0,0-13,7.43L7.1,527.1a15,15,0,0,0,13,22.66H1049.93a15,15,0,0,0,13-22.66l-77.1-131.38a15.09,15.09,0,0,0-13-7.43Z"/><path class="b02fff0c-0acb-4302-8868-833201ab6e69" d="M812.16,141.88H257.85a15.79,15.79,0,0,1-13.62-23.78L307.49,10.3a15.8,15.8,0,0,1,13.62-7.8H748.9a15.79,15.79,0,0,1,13.62,7.8l63.26,107.8A15.79,15.79,0,0,1,812.16,141.88Z"/><path class="b02fff0c-0acb-4302-8868-833201ab6e69" d="M812.16,144.38H257.85a18.29,18.29,0,0,1-15.77-27.55L305.34,9a18.35,18.35,0,0,1,15.77-9H748.9a18.37,18.37,0,0,1,15.78,9l63.26,107.8a18.29,18.29,0,0,1-15.78,27.55ZM321.11,5a13.35,13.35,0,0,0-11.46,6.56l-63.26,107.8a13.29,13.29,0,0,0,11.46,20H812.16a13.29,13.29,0,0,0,11.47-20L760.36,11.56A13.34,13.34,0,0,0,748.9,5Z"/><path class="b02fff0c-0acb-4302-8868-833201ab6e69" d="M157.82,335.72l-21.48-12.79,67.74-113.72A20.3,20.3,0,0,1,234,203.63L361.76,303.69l.4-95.4,25,.1-.45,106.27a19.67,19.67,0,0,1-31.79,15.43L222.82,226.61Zm203.89-21.15v0Z"/><rect class="b02fff0c-0acb-4302-8868-833201ab6e69" x="427.98" y="205.76" width="25" height="123.89"/><path class="b02fff0c-0acb-4302-8868-833201ab6e69" d="M649.65,338.4l-59.09-60.22-66.27,51.91a19.67,19.67,0,0,1-31.79-15.48l-.45-106.22,25-.1.41,95.4L573,260.22l-.22-.22,79.46-61.85,15.38,19.71-57.2,44.81,57.13,58.22ZM517.5,314.52v0Z"/><path class="b02fff0c-0acb-4302-8868-833201ab6e69" d="M860.62,342.15H712.83a19.94,19.94,0,0,1-17.21-30l58-99.1a19.76,19.76,0,0,1,17.2-9.86h.08a19.72,19.72,0,0,1,17.19,10l.07.11Zm-139-25h96.21L770.7,233.31Z"/><rect class="b02fff0c-0acb-4302-8868-833201ab6e69" x="869.98" y="198.72" width="25" height="140.55" transform="translate(-15.04 482.48) rotate(-30.33)"/></g></g></svg>