<svg xmlns="http://www.w3.org/2000/svg" viewBox="0 0 153.89 161.91"><defs><style>.e3aba991-7780-4df0-9327-faf07d61512f,.f7a1b185-d78b-4f3f-8b01-83c8387066b6{fill:none;stroke:#fff;stroke-miterlimit:10;stroke-width:15px;}.f7a1b185-d78b-4f3f-8b01-83c8387066b6{stroke-linecap:round;}</style></defs><g id="ede93d24-89dd-4826-90a0-3df63ba19ad1" data-name="Layer 2"><g id="b1005aa5-1ede-49ff-ab90-0653b54ea2c6" data-name="Layer 6"><path class="e3aba991-7780-4df0-9327-faf07d61512f" d="M123.2,42.07a9.53,9.53,0,0,0-17.37,5.43V20a9.6,9.6,0,0,0-1.7-5.44l-2.07-3a9.54,9.54,0,0,0-15.53-.2c-31,42.34-31,96.65-.26,139.09A9.53,9.53,0,0,0,102,150l24.27-37.57a9.53,9.53,0,0,0,1.52-5.32l-.94-59.47.49,30.95a9.53,9.53,0,0,0,17.54,5h0A9.53,9.53,0,0,0,144.69,73Z"/><line class="f7a1b185-d78b-4f3f-8b01-83c8387066b6" x1="28.91" y1="81.16" x2="7.5" y2="81.16"/><line class="f7a1b185-d78b-4f3f-8b01-83c8387066b6" x1="51" y1="21.16" x2="29.59" y2="21.16"/><line class="f7a1b185-d78b-4f3f-8b01-83c8387066b6" x1="51" y1="141.16" x2="29.59" y2="141.16"/></g></g></svg>