<svg xmlns="http://www.w3.org/2000/svg" viewBox="0 0 153.89 161.91"><defs><style>.b11aa166-77cd-4deb-89b6-0d60e1cb1d0f,.b2e36c55-6cc4-4c5b-ae58-966bc4086327{fill:none;stroke:#000;stroke-miterlimit:10;stroke-width:15px;}.b2e36c55-6cc4-4c5b-ae58-966bc4086327{stroke-linecap:round;}</style></defs><g id="e554e365-381a-4d6f-a783-a2d0f12a930f" data-name="Layer 2"><g id="fa38b3dd-a4eb-4993-8491-d57ebce23b6e" data-name="Layer 6"><path class="b11aa166-77cd-4deb-89b6-0d60e1cb1d0f" d="M123.2,42.07a9.53,9.53,0,0,0-17.37,5.43V20a9.6,9.6,0,0,0-1.7-5.44l-2.07-3a9.54,9.54,0,0,0-15.53-.2c-31,42.34-31,96.65-.26,139.09A9.53,9.53,0,0,0,102,150l24.27-37.57a9.53,9.53,0,0,0,1.52-5.32l-.94-59.47.49,30.95a9.53,9.53,0,0,0,17.54,5h0A9.53,9.53,0,0,0,144.69,73Z"/><line class="b2e36c55-6cc4-4c5b-ae58-966bc4086327" x1="28.91" y1="81.16" x2="7.5" y2="81.16"/><line class="b2e36c55-6cc4-4c5b-ae58-966bc4086327" x1="51" y1="21.16" x2="29.59" y2="21.16"/><line class="b2e36c55-6cc4-4c5b-ae58-966bc4086327" x1="51" y1="141.16" x2="29.59" y2="141.16"/></g></g></svg>