<svg xmlns="http://www.w3.org/2000/svg" viewBox="0 0 499.07 499.16"><defs><style>.aebb4e26-4693-4884-9b66-15dca9412560,.baca1de4-73d8-4401-bedf-6280f5839350{fill:#ccc;stroke:#fff;stroke-miterlimit:10;}.aebb4e26-4693-4884-9b66-15dca9412560{stroke-width:12px;}.baca1de4-73d8-4401-bedf-6280f5839350{stroke-width:22px;}.e017b152-ae09-43f1-83ca-e7ecfe0bc79a{fill:#fff;}.b21a25ae-d422-4897-b03d-56e6fdd7af4c{fill:#bcbcbc;}</style></defs><g id="a486e326-4434-4497-b8d1-123e0712dd29" data-name="Layer 2"><g id="bd736d9a-c560-4cd1-ac1f-1908010103dc" data-name="Layer 9 copy"><rect class="aebb4e26-4693-4884-9b66-15dca9412560" x="6" y="6" width="291.94" height="487" rx="48.4"/><rect class="baca1de4-73d8-4401-bedf-6280f5839350" x="68.06" y="57" width="131" height="1" rx="0.5"/><circle class="baca1de4-73d8-4401-bedf-6280f5839350" cx="230.06" cy="56" r="5"/><rect class="aebb4e26-4693-4884-9b66-15dca9412560" x="103.6" y="103.69" width="291.94" height="487" rx="48.4" transform="translate(596.76 97.62) rotate(90)"/><rect class="baca1de4-73d8-4401-bedf-6280f5839350" x="376.07" y="328.28" width="131" height="1" rx="0.5" transform="translate(770.35 -112.79) rotate(90)"/><circle class="baca1de4-73d8-4401-bedf-6280f5839350" cx="443.07" cy="425.28" r="5"/><path class="e017b152-ae09-43f1-83ca-e7ecfe0bc79a" d="M324.56,70.5c43.61.25,86.45,25.73,102.52,67.29a103.34,103.34,0,0,1,7,36.82c.07,11.58,18.07,11.61,18,0-.32-52.05-34.89-97.2-83.38-114.59a133.07,133.07,0,0,0-44.12-7.52c-11.58-.07-11.6,17.93,0,18Z"/><line class="b21a25ae-d422-4897-b03d-56e6fdd7af4c" x1="444.13" y1="175.7" x2="469.86" y2="129.36"/><path class="e017b152-ae09-43f1-83ca-e7ecfe0bc79a" d="M450.61,179.49l25.72-46.34c4.69-8.45-8.26-16-12.95-7.57l-25.72,46.34c-4.69,8.44,8.26,16,12.95,7.57Z"/><line class="b21a25ae-d422-4897-b03d-56e6fdd7af4c" x1="398.77" y1="144.09" x2="441.39" y2="175.59"/><path class="e017b152-ae09-43f1-83ca-e7ecfe0bc79a" d="M395,150.56l42.61,31.51c3.29,2.43,8.34.52,10.27-2.69,2.27-3.79.54-7.87-2.7-10.26l-42.61-31.51c-3.29-2.42-8.34-.52-10.27,2.69-2.26,3.79-.54,7.87,2.7,10.26Z"/></g></g></svg>