{
	"asset":
	{
		"version": "2.0",
		"generator": "Unreal Engine 5.6.0"
	},
	"scene": 0,
	"accessors": [
		{
			"bufferView": 0,
			"count": 720,
			"type": "SCALAR",
			"componentType": 5121
		},
		{
			"bufferView": 1,
			"count": 166,
			"type": "VEC3",
			"componentType": 5126,
			"min": [ -8000.70117, 15.1629295, -8001.04883 ],
			"max": [ 8001.43652, 9001.33691, 8000.9126 ]
		},
		{
			"bufferView": 2,
			"count": 166,
			"type": "VEC3",
			"componentType": 5120,
			"normalized": true
		},
		{
			"bufferView": 3,
			"count": 166,
			"type": "VEC4",
			"componentType": 5120,
			"normalized": true
		},
		{
			"bufferView": 4,
			"count": 166,
			"type": "VEC2",
			"componentType": 5126
		},
		{
			"bufferView": 5,
			"count": 6,
			"type": "SCALAR",
			"componentType": 5121
		},
		{
			"bufferView": 6,
			"count": 4,
			"type": "VEC3",
			"componentType": 5126,
			"min": [ -6495.65527, 8000, -6495.46533 ],
			"max": [ 6495.64795, 8000, 6495.46484 ]
		},
		{
			"bufferView": 7,
			"count": 4,
			"type": "VEC3",
			"componentType": 5120,
			"normalized": true
		},
		{
			"bufferView": 8,
			"count": 4,
			"type": "VEC4",
			"componentType": 5120,
			"normalized": true
		},
		{
			"bufferView": 9,
			"count": 4,
			"type": "VEC2",
			"componentType": 5126
		},
		{
			"bufferView": 10,
			"count": 42,
			"type": "SCALAR",
			"componentType": 5121
		},
		{
			"bufferView": 11,
			"count": 12,
			"type": "VEC3",
			"componentType": 5126,
			"min": [ -7162.2334, 0.116365969, -7162.28809 ],
			"max": [ 7162.29688, 18.1899529, 7163.00293 ]
		},
		{
			"bufferView": 12,
			"count": 12,
			"type": "VEC3",
			"componentType": 5120,
			"normalized": true
		},
		{
			"bufferView": 13,
			"count": 12,
			"type": "VEC4",
			"componentType": 5120,
			"normalized": true
		},
		{
			"bufferView": 14,
			"count": 12,
			"type": "VEC2",
			"componentType": 5126
		}
	],
	"buffers": [
		{
			"uri": "CornellBoxTest_BigLevel.bin",
			"byteLength": 5868
		}
	],
	"bufferViews": [
		{
			"buffer": 0,
			"byteLength": 720,
			"target": 34963
		},
		{
			"buffer": 0,
			"byteLength": 1992,
			"byteOffset": 720,
			"target": 34962
		},
		{
			"buffer": 0,
			"byteLength": 664,
			"byteOffset": 2712,
			"byteStride": 4,
			"target": 34962
		},
		{
			"buffer": 0,
			"byteLength": 664,
			"byteOffset": 3376,
			"target": 34962
		},
		{
			"buffer": 0,
			"byteLength": 1328,
			"byteOffset": 4040,
			"target": 34962
		},
		{
			"buffer": 0,
			"byteLength": 6,
			"byteOffset": 5368,
			"target": 34963
		},
		{
			"buffer": 0,
			"byteLength": 48,
			"byteOffset": 5376,
			"target": 34962
		},
		{
			"buffer": 0,
			"byteLength": 16,
			"byteOffset": 5424,
			"byteStride": 4,
			"target": 34962
		},
		{
			"buffer": 0,
			"byteLength": 16,
			"byteOffset": 5440,
			"target": 34962
		},
		{
			"buffer": 0,
			"byteLength": 32,
			"byteOffset": 5456,
			"target": 34962
		},
		{
			"buffer": 0,
			"byteLength": 42,
			"byteOffset": 5488,
			"target": 34963
		},
		{
			"buffer": 0,
			"byteLength": 144,
			"byteOffset": 5532,
			"target": 34962
		},
		{
			"buffer": 0,
			"byteLength": 48,
			"byteOffset": 5676,
			"byteStride": 4,
			"target": 34962
		},
		{
			"buffer": 0,
			"byteLength": 48,
			"byteOffset": 5724,
			"target": 34962
		},
		{
			"buffer": 0,
			"byteLength": 96,
			"byteOffset": 5772,
			"target": 34962
		}
	],
	"cameras": [
		{
			"name": "CameraComponent",
			"type": "perspective",
			"perspective":
			{
				"aspectRatio": 1.77777779,
				"yfov": 0.490276188,
				"znear": 10
			}
		}
	],
	"images": [
		{
			"uri": "MI_emisiva_Occlusion.png"
		},
		{
			"uri": "T_qj2luvs0_4K_B.png"
		},
		{
			"uri": "T_qj2luvs0_4K_ORM.png"
		},
		{
			"uri": "T_Generic_N.png"
		}
	],
	"materials": [
		{
			"name": "MI_PaintedWall_CornellBoxText",
			"pbrMetallicRoughness":
			{
				"baseColorTexture":
				{
					"index": 0
				},
				"metallicRoughnessTexture":
				{
					"index": 1
				}
			},
			"normalTexture":
			{
				"index": 2
			},
			"occlusionTexture":
			{
				"index": 1
			}
		},
		{
			"name": "MI_emisiva",
			"pbrMetallicRoughness":
			{
				"metallicFactor": 0,
				"roughnessFactor": 0
			},
			"occlusionTexture":
			{
				"index": 3
			},
			"emissiveFactor": [ 1, 1, 1 ],
			"extensions":
			{
				"KHR_materials_emissive_strength":
				{
					"emissiveStrength": 5
				}
			}
		},
		{
			"name": "MI_PaintedWall_CornellBoxText",
			"pbrMetallicRoughness":
			{
				"baseColorTexture":
				{
					"index": 0
				},
				"metallicRoughnessTexture":
				{
					"index": 1
				}
			},
			"normalTexture":
			{
				"index": 2
			},
			"occlusionTexture":
			{
				"index": 1
			}
		}
	],
	"meshes": [
		{
			"name": "CornellBoxText",
			"primitives": [
				{
					"attributes":
					{
						"POSITION": 1,
						"NORMAL": 2,
						"TANGENT": 3,
						"TEXCOORD_0": 4
					},
					"indices": 0,
					"material": 0
				},
				{
					"attributes":
					{
						"POSITION": 6,
						"NORMAL": 7,
						"TANGENT": 8,
						"TEXCOORD_0": 9
					},
					"indices": 5,
					"material": 1
				},
				{
					"attributes":
					{
						"POSITION": 11,
						"NORMAL": 12,
						"TANGENT": 13,
						"TEXCOORD_0": 14
					},
					"indices": 10,
					"material": 2
				}
			]
		}
	],
	"nodes": [
		{
			"name": "Brush0"
		},
		{
			"name": "CornellBoxText",
			"mesh": 0
		},
		{
			"name": "CineCameraActor",
			"translation": [ -144.185242, 3319.7417, 23359.5332 ],
			"rotation": [ 0.0271442812, 0.706585586, 0.0271442812, 0.706585586 ],
			"children": [ 3 ]
		},
		{
			"name": "CameraComponent",
			"children": [ 4 ]
		},
		{
			"name": "CameraComponent",
			"rotation": [ -0, -0.707106829, 0, 0.707106769 ],
			"camera": 0
		},
		{
			"name": "DefaultPhysicsVolume0"
		}
	],
	"samplers": [
		{
			"minFilter": 9984,
			"magFilter": 9728,
			"wrapS": 33071,
			"wrapT": 33071
		},
		{
			"minFilter": 9987,
			"magFilter": 9729
		}
	],
	"scenes": [
		{
			"name": "CornellBoxTest_Big",
			"nodes": [ 0, 1, 2, 5 ]
		}
	],
	"textures": [
		{
			"name": "T_qj2luvs0_4K_B",
			"sampler": 1,
			"source": 1
		},
		{
			"name": "T_qj2luvs0_4K_ORM",
			"sampler": 1,
			"source": 2
		},
		{
			"name": "T_Generic_N",
			"sampler": 1,
			"source": 3
		},
		{
			"name": "MI_emisiva_Occlusion",
			"sampler": 0,
			"source": 0
		}
	],
	"extensionsUsed": [
		"KHR_mesh_quantization",
		"KHR_materials_emissive_strength"
	],
	"extensionsRequired": [
		"KHR_mesh_quantization"
	]
}