<svg xmlns="http://www.w3.org/2000/svg" viewBox="0 0 170.7 161.91"><defs><style>.b36f83a9-a891-44a0-a654-c06117da64cb,.e46c7318-3edf-4c7c-93bd-0820827732ed{fill:none;stroke:#fff;stroke-miterlimit:10;stroke-width:15px;}.e46c7318-3edf-4c7c-93bd-0820827732ed{stroke-linecap:round;}</style></defs><g id="bc040d0b-b657-43d2-9990-62b48cf45477" data-name="Layer 2"><g id="bcb52d6e-6f49-4abd-8a7a-0a22ff5e2c1a" data-name="Layer 6"><path class="b36f83a9-a891-44a0-a654-c06117da64cb" d="M140,42.07a9.53,9.53,0,0,0-17.37,5.43V20a9.52,9.52,0,0,0-1.7-5.44l-2.06-3a9.55,9.55,0,0,0-15.54-.2c-31,42.34-30.95,96.65-.26,139.09A9.54,9.54,0,0,0,118.8,150l24.26-37.57a9.46,9.46,0,0,0,1.53-5.32l-1-59.47.49,30.95a9.54,9.54,0,0,0,17.55,5h0A9.53,9.53,0,0,0,161.5,73Z"/><line class="e46c7318-3edf-4c7c-93bd-0820827732ed" x1="7.5" y1="111.82" x2="62.47" y2="56.85"/><line class="e46c7318-3edf-4c7c-93bd-0820827732ed" x1="62.47" y1="111.82" x2="7.5" y2="56.85"/></g></g></svg>