<svg xmlns="http://www.w3.org/2000/svg" viewBox="0 0 170.7 161.91"><defs><style>.bb32a457-e834-4a96-9aff-9e431af14a24,.bda2d41f-decd-480a-afce-d4881da75f25{fill:none;stroke:#000;stroke-miterlimit:10;stroke-width:15px;}.bb32a457-e834-4a96-9aff-9e431af14a24{stroke-linecap:round;}</style></defs><g id="a65ffea4-f565-4b8d-858c-b657900d9792" data-name="Layer 2"><g id="e4791c6b-fc4a-44a0-890f-24da56597445" data-name="Layer 6"><path class="bda2d41f-decd-480a-afce-d4881da75f25" d="M140,42.07a9.53,9.53,0,0,0-17.37,5.43V20a9.52,9.52,0,0,0-1.7-5.44l-2.06-3a9.55,9.55,0,0,0-15.54-.2c-31,42.34-30.95,96.65-.26,139.09A9.54,9.54,0,0,0,118.8,150l24.26-37.57a9.46,9.46,0,0,0,1.53-5.32l-1-59.47.49,30.95a9.54,9.54,0,0,0,17.55,5h0A9.53,9.53,0,0,0,161.5,73Z"/><line class="bb32a457-e834-4a96-9aff-9e431af14a24" x1="7.5" y1="111.82" x2="62.47" y2="56.85"/><line class="bb32a457-e834-4a96-9aff-9e431af14a24" x1="62.47" y1="111.82" x2="7.5" y2="56.85"/></g></g></svg>